<svg xmlns="http://www.w3.org/2000/svg" xmlns:xlink="http://www.w3.org/1999/xlink" version="1.1" x="0px" y="0px" viewBox="0 0 64 80" enable-background="new 0 0 64 64" xml:space="preserve"><g><path fill-rule="evenodd" clip-rule="evenodd" d="M26.624,27.597l-0.004,5.148c0.004,2.622,0.741,5.141,2.786,6.891   c1.735,1.487,4.162,2.202,6.864,2.202c6.833,0.458,8.87-7.365,8.806-12.686c-0.008-0.493,0.233-1.208,1.074-1.208   c3.31,0,6.623,0.008,9.937,0.008c5.236,0.003,5.817,6.7,1.272,7.728c-0.16,5.022-2.809,9.222-6.222,12.215   c-3.188,2.798-7.074,4.544-10.22,4.919v1.819h13.415c1.422,0.187,1.506-1.307,0.11-1.223c-1.418,0.08-2.423-0.623-2.916-1.563   c-1.104-2.11,0.512-4.155,2.82-4.231c1.973-0.065,3.433,0.195,4.545,0.761c4.586,2.323,3.947,9.937-0.94,12.047   c-0.975,0.42-2.141,0.665-3.509,0.661L7.545,61.027c-4.398,0.019-4.476-6.367-0.004-6.394l11.967,0.034v-1.815   c-3.975-0.363-7.521-2.717-10.074-6.172c-2.55-3.447-4.116-8.011-4.116-12.758c-0.004-0.187,0-0.367,0.004-0.546   c-1.426-0.313-2.424-1.162-2.932-2.171C2.134,30.704,2.004,30.157,2,29.611c-0.004-0.554,0.126-1.104,0.394-1.605   c0.378-0.703,1.021-1.299,1.941-1.659c-3.86-4.808,0.042-14.657,7.124-14.672c-0.012-0.283,0.015-0.562,0.076-0.837   c-1.001-0.806-2.848-2.542-2.866-5.924C8.397,2.688,10.58,2.922,12.12,2.922h8.618c1.502,0,2.389,0.053,2.389,1.899   c0,1.166-0.497,2.668-1.158,3.914c-0.451,0.853-1.013,1.613-1.586,2.122c0.038,0.176,0.062,0.363,0.072,0.55   C27.702,10.623,32.552,23.404,26.624,27.597L26.624,27.597z M18.338,14.583l0.833,2.419c0.195,0.562-0.106,1.177-0.668,1.368   c-0.566,0.195-1.178-0.107-1.368-0.669l-1.128-3.023l-1.043,3.023c-0.191,0.562-0.807,0.864-1.368,0.669   c-0.563-0.191-0.864-0.806-0.669-1.368l0.817-2.377c-0.512-0.107-0.979-0.367-1.353-0.741c-8.007-0.94-9.149,11.42-4.931,11.921   L25.37,25.85c4.357-3.081-0.084-14.203-5.786-12.028C19.236,14.185,18.813,14.453,18.338,14.583L18.338,14.583z M19.244,9.018   c0.248-0.298,0.539-0.765,0.821-1.296c0.517-0.971,0.895-1.827,0.895-2.633H10.828c0.076,2.083,1.135,3.275,1.869,3.914   c0.447-0.336,0.986-0.531,1.566-0.531h3.387C18.242,8.471,18.789,8.674,19.244,9.018L19.244,9.018z M17.65,10.627h-3.387   c-0.879,0-0.81,1.896,0,1.896h3.387C18.499,12.522,18.499,10.627,17.65,10.627L17.65,10.627z M21.659,28.139l-0.026,5.026   c-0.038,5.928,3.184,9.976,7.452,11.952c1.851,0.856,3.895,1.33,5.959,1.402c2.067,0.073,4.15-0.252,6.068-0.99   c4.525-1.739,8.183-5.813,8.653-12.44l0.21-2.993H47.22c-0.08,3.501-1.051,13.828-10.846,13.893c-0.008,0-0.02,0-0.031,0h-0.004   l0,0h-0.003h-0.065v0.003c-3.195,0-6.115-0.883-8.263-2.721c-2.171-1.861-3.521-4.659-3.535-8.462l-0.004-4.67H21.659z    M34.749,52.891l-8.932,0.003v1.754l8.932-0.023V52.891z M21.659,52.898v2.848c0,0.592-0.481,1.074-1.077,1.074L7.549,56.781   c-1.608,0.012-1.57,2.106-0.008,2.098l46.902,0.058c1.051,0.003,1.934-0.18,2.66-0.493c3.271-1.414,3.737-6.669,0.818-8.148   c-0.792-0.401-1.911-0.585-3.505-0.531c-1.552,0.05-1.308,1.567-0.092,1.498c1.528-0.088,2.511,0.47,3.004,1.261   c1.242,1.991-0.73,4.155-2.897,4.258c-4.64,0.218-9.883,0-14.592,0c-0.592,0-1.073-0.481-1.073-1.074l-0.004-2.821l-1.857,0.004   v2.805c0,0.596-0.481,1.078-1.078,1.078c-3.692,0-7.388,0.02-11.084,0.027c-0.592,0-1.073-0.481-1.073-1.074v-2.829"/></g><text x="0" y="79" fill="#000000" font-size="5px" font-weight="bold" font-family="'Helvetica Neue', Helvetica, Arial-Unicode, Arial, Sans-serif"></text><text x="0" y="84" fill="#000000" font-size="5px" font-weight="bold" font-family="'Helvetica Neue', Helvetica, Arial-Unicode, Arial, Sans-serif">from the Noun Project</text></svg>